<svg width="132" height="132" viewBox="0 0 132 132" fill="none" xmlns="http://www.w3.org/2000/svg">
<path d="M126.327 55.2231C125.95 55.0288 125.567 54.8677 125.178 54.7289C122.242 53.6792 120.014 51.1468 119.03 48.07C117.897 44.5157 118.418 40.6726 120.237 37.4459C121.806 34.658 122.147 31.1314 120.764 27.8381C118.939 23.4951 114.429 20.9294 109.945 21.6902C109.743 21.7235 109.546 21.7624 109.349 21.8124C105.844 22.6232 102.174 21.9568 99.2808 19.7353L98.4351 19.0855C95.5417 16.8641 93.845 13.3986 93.5471 9.661C93.5311 9.45552 93.5099 9.24448 93.478 9.03344C92.8397 4.31284 89.1271 0.575235 84.5901 0.0642989C81.0903 -0.324457 77.9096 1.14726 75.8353 3.65751C73.5056 6.47876 70.16 8.16152 66.5964 8.16152H65.4103C61.8413 8.16152 58.501 6.47321 56.1661 3.65196C54.097 1.15281 50.9323 -0.318904 47.4431 0.058744C42.8902 0.553019 39.1616 4.30729 38.5234 9.039C38.4915 9.26114 38.4702 9.48329 38.4542 9.70543C38.1723 13.4375 36.4756 16.8974 33.5928 19.1244L32.5024 19.9686C29.6196 22.1956 25.9602 22.8898 22.4551 22.079C22.2476 22.029 22.0349 21.9901 21.8221 21.9568C17.3011 21.2126 12.7747 23.845 10.9929 28.2435C9.63128 31.6146 10.0568 35.2078 11.7429 38.0013C13.647 41.1557 14.2215 44.9822 13.179 48.5476L12.8332 49.7306C11.7907 53.3016 9.25896 56.1395 5.99318 57.6556C3.12631 58.9885 0.871106 61.6987 0.19029 65.2586C-0.697961 69.9125 1.58915 74.7109 5.67936 76.7768C6.057 76.9712 6.44528 77.1323 6.82824 77.2711C9.76425 78.3208 11.9929 80.8532 12.9715 83.9299C14.1045 87.4843 13.5832 91.3274 11.7642 94.5541C10.1951 97.342 9.85468 100.869 11.2376 104.162C13.062 108.505 17.5724 111.071 22.0562 110.31C22.2583 110.276 22.4551 110.238 22.6519 110.188C26.157 109.377 29.827 110.043 32.7205 112.265L33.5662 112.914C36.4597 115.141 38.1564 118.601 38.4542 122.339C38.4702 122.544 38.4915 122.756 38.5234 122.967C39.1616 127.687 42.8742 131.425 47.4112 131.936C50.911 132.324 54.0917 130.853 56.1661 128.342C58.4957 125.521 61.8413 123.838 65.405 123.838H66.5911C70.16 123.838 73.5003 125.527 75.8353 128.348C77.9043 130.847 81.0743 132.319 84.5582 131.941C89.1112 131.447 92.8397 127.693 93.4726 122.955C93.5045 122.733 93.5258 122.511 93.5418 122.289C93.8237 118.557 95.5204 115.097 98.4032 112.87L99.4936 112.026C102.376 109.799 106.036 109.105 109.541 109.915C109.748 109.965 109.961 110.004 110.174 110.038C114.695 110.782 119.221 108.149 121.003 103.751C122.365 100.38 121.939 96.7867 120.253 93.9932C118.349 90.8387 117.775 87.0122 118.817 83.4468L119.163 82.2639C120.205 78.6929 122.737 75.8549 126.003 74.3388C128.87 73.0059 131.13 70.2957 131.806 66.7359C132.705 62.0819 130.417 57.2891 126.327 55.2231Z" fill="#E6FA94"/>
<rect x="84" y="35" width="9" height="19" rx="4.5" fill="#1E1E1E"/>
<rect x="61" y="35" width="9" height="19" rx="4.5" fill="#1E1E1E"/>
<path d="M94 66C90.7644 69.3333 80.56 76 65.6267 76C50.6933 76 40.9867 69.3333 38 66" stroke="black" stroke-width="3" stroke-linecap="round"/>
</svg>
