<svg width="132" height="132" viewBox="0 0 132 132" fill="none" xmlns="http://www.w3.org/2000/svg">
<path fill-rule="evenodd" clip-rule="evenodd" d="M86.102 13.8583C96.2502 3.71014 111.649 2.65562 120.496 11.5029C129.344 20.3503 128.289 35.7492 118.141 45.8973C111.898 52.1406 96.9508 61.6585 84.3122 65.9988C96.9502 70.3395 111.896 79.8565 118.138 86.0993C128.287 96.2475 129.341 111.646 120.494 120.494C111.646 129.341 96.2475 128.287 86.0993 118.138C79.8564 111.895 70.3392 96.9497 65.9986 84.3116C61.6582 96.9501 52.1405 111.897 45.8973 118.14C35.7492 128.288 20.3503 129.343 11.5029 120.495C2.65562 111.648 3.71014 96.249 13.8583 86.1009C20.1015 79.8576 35.0486 70.3397 47.6872 65.9994C35.0491 61.6586 20.1038 52.1416 13.861 45.8988C3.71281 35.7507 2.65829 20.3518 11.5056 11.5045C20.353 2.65712 35.7518 3.71164 45.9 13.8598C52.1429 20.1027 61.6601 35.0484 66.0007 47.6866C70.3411 35.0481 79.8589 20.1014 86.102 13.8583Z" fill="#FFD0F8"/>
<path d="M98 72C94.5333 75.3333 83.6 82 67.6 82C51.6 82 41.2 75.3333 38 72" stroke="black" stroke-width="3" stroke-linecap="round"/>
<path d="M47 41L59.1004 47.8571C61.0365 49 64.5214 51.1333 59.1004 53.5714C53.6794 56.0095 48.7747 56.873 47 57" stroke="black" stroke-width="3" stroke-linecap="round"/>
<path d="M86 41L73.8996 47.8571C71.9635 49 68.4786 51.1333 73.8996 53.5714C79.3206 56.0095 84.2253 56.873 86 57" stroke="black" stroke-width="3" stroke-linecap="round"/>
</svg>
