<svg width="132" height="132" viewBox="0 0 132 132" fill="none" xmlns="http://www.w3.org/2000/svg">
<path fill-rule="evenodd" clip-rule="evenodd" d="M66 132C102.451 132 132 102.451 132 66C132 29.5492 102.451 0 66 0C29.5492 0 0 29.5492 0 66C0 102.451 29.5492 132 66 132ZM66.0978 94.4504C81.7574 94.4504 94.452 81.7559 94.452 66.0963C94.452 50.4368 81.7574 37.7422 66.0978 37.7422C50.4382 37.7422 37.7437 50.4368 37.7437 66.0963C37.7437 81.7559 50.4382 94.4504 66.0978 94.4504Z" fill="#FFBFBF"/>
<rect x="108" y="32" width="9" height="18" rx="4.5" fill="#1E1E1E"/>
<rect x="94" y="32" width="9" height="18" rx="4.5" fill="#1E1E1E"/>
<path d="M74.058 70.817C73.0672 60.3866 85.0025 57.9987 92.326 58C110 58.9115 113.5 66.3586 114 70.817C114 78.4189 106.001 79.0807 104.092 78.9933C98 78.5 98.0013 77.6306 94.8031 76.3415C92.0879 75.2471 87.2532 75.5782 83.0372 75.6785C75.6062 75.8553 74.5034 72.6082 74.058 70.817Z" stroke="black" stroke-width="3"/>
</svg>
