<svg width="132" height="132" viewBox="0 0 132 132" fill="none" xmlns="http://www.w3.org/2000/svg">
<path fill-rule="evenodd" clip-rule="evenodd" d="M71.4999 132C35.0492 132 5.5 102.451 5.5 66C5.5 29.5492 35.0492 0 71.4999 0V29.8399C83.292 11.8682 103.621 5.14485e-05 126.722 5.14485e-05V132C103.621 132 83.292 120.132 71.4999 102.16V132Z" fill="#AECAFF"/>
<path d="M87 74C84.9778 76 78.6 80 69.2667 80C59.9333 80 53.8667 76 52 74" stroke="black" stroke-width="3" stroke-linecap="round"/>
<rect x="73" y="39" width="9" height="19" rx="4.5" fill="#1E1E1E"/>
<rect x="58" y="39" width="9" height="19" rx="4.5" fill="#1E1E1E"/>
<path d="M101.526 56.0559C100.549 62.8964 93.0904 67 87.1623 67C81.2343 67 73.9382 61.7566 72.5702 56.0559C71.2022 50.3551 74.6222 45.9914 87.1623 45.1118C99.7025 44.2321 102.591 48.607 101.526 56.0559Z" fill="#1E1E1E"/>
<path d="M39.2026 56.0559C40.1798 62.8964 47.6387 67 53.5668 67C59.4949 67 66.791 61.7566 68.159 56.0559C69.5269 50.3551 66.107 45.9914 53.5668 45.1118C41.0267 44.2321 38.1386 48.607 39.2026 56.0559Z" fill="#1E1E1E"/>
<path d="M63.6245 50.1279L64.0597 50.2215C68.4282 51.161 72.9498 51.129 77.3046 50.1279V55.6C72.9399 54.6969 68.4394 54.6681 64.0635 55.515L63.6245 55.6V50.1279Z" fill="#1E1E1E"/>
<path d="M99.0263 56.103C98.2242 61.7744 92.101 65.1767 87.2346 65.1767C82.3681 65.1767 76.3786 60.8294 75.2556 56.103C74.1326 51.3765 76.9401 47.7585 87.2346 47.0292C97.529 46.2999 99.8998 49.9271 99.0263 56.103Z" fill="#3C3C3C"/>
<path d="M41.9027 56.103C42.7049 61.7744 48.828 65.1767 53.6945 65.1767C58.5609 65.1767 64.5504 60.8294 65.6734 56.103C66.7964 51.3765 63.9889 47.7585 53.6945 47.0292C43.4001 46.2999 41.0292 49.9271 41.9027 56.103Z" fill="#3C3C3C"/>
</svg>
