<svg width="132" height="132" viewBox="0 0 132 132" fill="none" xmlns="http://www.w3.org/2000/svg">
<path fill-rule="evenodd" clip-rule="evenodd" d="M113.186 65.9995C122.355 59.9062 128.4 49.4731 128.4 37.626C128.4 18.8337 113.19 3.59961 94.4268 3.59961C82.5347 3.59961 72.0698 9.7193 66.0001 18.9859C59.9304 9.71933 49.4654 3.59965 37.5734 3.59965C18.8104 3.59965 3.60008 18.8338 3.60008 37.6261C3.60008 49.4732 9.64521 59.9061 18.8146 65.9995C9.64515 72.0929 3.59998 82.5259 3.59998 94.3731C3.59998 113.165 18.8103 128.399 37.5733 128.399C49.4654 128.399 59.9303 122.28 66 113.013C72.0697 122.28 82.5347 128.399 94.4268 128.399C113.19 128.399 128.4 113.165 128.4 94.3731C128.4 82.5259 122.355 72.0929 113.186 65.9995ZM66 75.733C68.5305 71.8698 71.8248 68.5535 75.6681 65.9995C71.8249 63.4456 68.5305 60.1294 66.0001 56.2661C63.4696 60.1294 60.1753 63.4457 56.3321 65.9996C60.1753 68.5535 63.4696 71.8698 66 75.733Z" fill="#FED9BF"/>
<path d="M88 73C85.5156 75.3333 77.68 80 66.2133 80C54.7467 80 47.2933 75.3333 45 73" stroke="black" stroke-width="3" stroke-linecap="round"/>
<rect x="44" y="57" width="15" height="6" rx="2.5" fill="#A4E2FB"/>
<rect x="77" y="57" width="15" height="6" rx="2.5" fill="#A4E2FB"/>
<rect x="51" y="42" width="9" height="19" rx="4.5" fill="#1E1E1E"/>
<rect x="74" y="42" width="9" height="19" rx="4.5" fill="#1E1E1E"/>
</svg>
