<svg width="134" height="133" viewBox="0 0 134 133" fill="none" xmlns="http://www.w3.org/2000/svg">
<path fill-rule="evenodd" clip-rule="evenodd" d="M44.8322 6.72178L45.3146 6.3964C58.1338 -2.24953 74.9507 -2.12024 87.6355 6.72178L94.388 58.7362L133.007 97.9801C132.175 113.481 121.993 126.875 107.343 131.74L106.79 131.924L66.9509 112.559L27.209 132.007L26.6561 131.824C12.0064 126.959 1.82434 113.565 0.992432 98.064L38.4751 59.9743L44.8322 6.72178Z" fill="#FBEFC4"/>
<rect x="72" y="35" width="9" height="19" rx="4.5" fill="#1E1E1E"/>
<rect x="53" y="35" width="9" height="19" rx="4.5" fill="#1E1E1E"/>
<path d="M43.0682 66.1991C44.1351 63.3277 47.3277 61.8649 50.1991 62.9318C53.0705 63.9987 54.5333 67.1914 53.4664 70.0627L51.4832 75.4002L41.085 71.5366L43.0682 66.1991Z" fill="#E28888"/>
<path d="M95 70.1602C91.7644 72.8268 81.56 78.1602 66.6267 78.1602C51.6933 78.1602 41.9867 72.8268 39 70.1602" stroke="black" stroke-width="3" stroke-linecap="round"/>
</svg>
