<svg width="132" height="132" viewBox="0 0 132 132" fill="none" xmlns="http://www.w3.org/2000/svg">
<path d="M7.33334 45.7995L7.33333 119.63C7.33333 122.412 9.58865 124.667 12.3707 124.667L45.8483 124.667C48.6303 124.667 50.8857 122.412 50.8857 119.63L50.8857 64.9037C50.8857 56.6387 57.5858 49.9386 65.8508 49.9386C74.1158 49.9386 80.8159 56.6388 80.8159 64.9038L80.8159 119.63C80.8159 122.412 83.0712 124.667 85.8533 124.667L117.796 124.667C120.578 124.667 122.833 122.412 122.833 119.63L122.833 45.7996C122.833 23.5429 104.791 5.50034 82.5341 5.50034L47.6325 5.50034C25.3759 5.50033 7.33334 23.5429 7.33334 45.7995Z" fill="#C7FEB4"/>
<rect x="74" y="22" width="9" height="19" rx="4.5" fill="#1E1E1E"/>
<path d="M42 59C45.2356 55.6667 55.44 49 70.3733 49C85.3067 49 95.0133 55.6667 98 59" stroke="black" stroke-width="3" stroke-linecap="round"/>
<path fill-rule="evenodd" clip-rule="evenodd" d="M89 27V36.5C89 38.9853 91.0147 41 93.5 41C95.9853 41 98 38.9853 98 36.5V27H89Z" fill="#1E1E1E"/>
</svg>
