<svg width="197" height="26" viewBox="0 0 197 26" fill="none" xmlns="http://www.w3.org/2000/svg">
<path d="M41.7764 10.858H43.5144V17.854H46.2644V2.63H43.5144V8.526H41.7764V3.004H39.0704V17.282H41.7764V10.858ZM29.9404 4.324V6.634H35.0004C34.9344 7.184 34.8244 7.69 34.6704 8.196L29.0824 8.46L29.4564 10.77L33.6584 10.308C32.6684 11.694 31.1284 12.838 28.8624 13.806L30.2264 15.852C35.8584 13.388 37.8824 9.626 37.8824 4.324H29.9404ZM35.4184 20.23V16.094H32.5144V22.54H46.8144V20.23H35.4184ZM52.9066 6.788H59.7926V4.434H50.0026V18.118H51.7846C56.0966 18.118 58.6706 18.03 61.4206 17.502L61.1566 15.104C58.7146 15.566 56.4486 15.676 52.9066 15.698V6.788ZM62.6746 2.63V22.958H65.5786V2.63H62.6746ZM74.7954 4.566V6.876H81.2194C81.1534 7.844 80.9994 8.724 80.8014 9.56L73.7174 9.978L74.0914 12.442L79.9654 11.87C78.8214 14.092 76.8634 15.984 73.5414 17.634L75.0814 19.878C82.6274 16.028 84.1014 10.814 84.1014 4.566H74.7954ZM92.3294 10.352H89.4914V2.608H86.5874V22.848H89.4914V12.75H92.3294V10.352ZM96.7717 12.552H100.754V10.308H96.7717V7.162H101.524V4.852H94.0217V18.426H95.4077C98.3117 18.426 100.248 18.382 102.536 18.008L102.294 15.698C100.468 15.984 98.8837 16.072 96.7717 16.094V12.552ZM103.878 10H101.678V12.354H103.878V21.99H106.584V3.004H103.878V10ZM108.08 2.608V22.87H110.83V2.608H108.08ZM129 16.006C129.814 11.694 129.814 8.834 129.814 6.304V4.368H115.096V6.678H126.91C126.91 9.032 126.866 11.848 126.096 15.676L129 16.006ZM122.62 18.118V11.144H119.716V18.118H113.248V20.45H131.574V18.118H122.62ZM137.072 12.178H143.65V4.346H134.08V6.656H140.68V9.89H134.102V18.228H135.928C139.602 18.228 142.572 18.096 145.872 17.524L145.564 15.17C142.704 15.654 140.152 15.808 137.072 15.83V12.178ZM146.972 2.608V22.936H149.876V2.608H146.972ZM159.797 13.718C163.273 13.3 165.715 11.914 167.013 10.088C168.311 11.914 170.753 13.3 174.185 13.718L175.219 11.43C171.061 10.968 168.861 8.966 168.509 7.25H174.515V4.94H168.443V2.674H165.539V4.94H159.511V7.25H165.495C165.165 9.01 163.009 10.968 158.785 11.43L159.797 13.718ZM176.187 14.752H157.883V17.106H165.539V22.936H168.443V17.106H176.187V14.752ZM178.583 4.698V7.052H185.205C184.677 11.54 182.169 14.752 177.461 17.172L179.089 19.394C185.821 15.984 188.131 10.77 188.131 4.698H178.583ZM196.359 10.352H193.521V2.608H190.617V22.848H193.521V12.75H196.359V10.352Z" fill="#1E1E1E"/>
<line x1="1.5" y1="12.5" x2="17.5" y2="12.5" stroke="#1E1E1E" stroke-width="3" stroke-linecap="round"/>
<line x1="9.5" y1="4.5" x2="9.5" y2="20.5" stroke="#1E1E1E" stroke-width="3" stroke-linecap="round"/>
</svg>
