<svg width="10" height="7" viewBox="0 0 10 7" fill="none" xmlns="http://www.w3.org/2000/svg">
<path d="M1.70711 0.792893C1.31658 0.402369 0.683417 0.402369 0.292893 0.792893C-0.0976311 1.18342 -0.0976311 1.81658 0.292893 2.20711L1.70711 0.792893ZM5 5.5L4.29289 6.20711C4.68342 6.59763 5.31658 6.59763 5.70711 6.20711L5 5.5ZM9.70711 2.20711C10.0976 1.81658 10.0976 1.18342 9.70711 0.792893C9.31658 0.402369 8.68342 0.402369 8.29289 0.792893L9.70711 2.20711ZM0.292893 2.20711L4.29289 6.20711L5.70711 4.79289L1.70711 0.792893L0.292893 2.20711ZM5.70711 6.20711L9.70711 2.20711L8.29289 0.792893L4.29289 4.79289L5.70711 6.20711Z" fill="black"/>
</svg>
