<svg width="75" height="41" viewBox="0 0 75 41" fill="none" xmlns="http://www.w3.org/2000/svg">
<path d="M5 10C2.23858 10 0 7.76142 0 5C0 2.23858 2.23858 0 5 0V10Z" fill="#808080"/>
<path fill-rule="evenodd" clip-rule="evenodd" d="M15.8318 8.82026H4.49611C3.21155 8.82026 0.513969 8.0562 0.000144958 5V30.4684C0.000144958 33.8642 2.05544 40.6557 10.2766 40.6557H17.984V40.5688C18.1364 40.5731 18.2893 40.5753 18.4427 40.5753H59.0164C67.8439 40.5753 75 33.4192 75 24.5917C75 15.7642 67.8439 8.60808 59.0164 8.60808H18.4427C17.5536 8.60808 16.6814 8.68067 15.8318 8.82026Z" fill="#E6FA94"/>
<path d="M12.7533 18.9055C11.6517 18.9055 11.2902 19.2498 11.2902 20.3342V29.7154C11.2902 30.7998 11.6517 31.144 12.7533 31.144H15.5935C19.1566 31.144 21.0156 29.5088 21.0156 25.3432V24.7063C21.0156 20.5408 19.1566 18.9055 15.5935 18.9055H12.7533ZM13.4763 20.7645H15.3009C17.814 20.7645 18.7951 21.7801 18.7951 24.8785V25.1711C18.7951 28.2694 17.814 29.285 15.3009 29.285H13.4763V20.7645ZM23.3428 24.1555C22.8436 24.1555 22.6026 24.5686 22.6026 25.0678C22.6026 25.567 22.8436 25.9801 23.3428 25.9801H27.9215C28.4206 25.9801 28.6616 25.567 28.6616 25.0678C28.6616 24.5686 28.4206 24.1555 27.9215 24.1555H23.3428ZM32.1685 18.9055C31.0669 18.9055 30.7054 19.2498 30.7054 20.3342V29.7154C30.7054 30.7998 31.0669 31.144 32.1685 31.144H35.0087C38.5718 31.144 40.4308 29.5088 40.4308 25.3432V24.7063C40.4308 20.5408 38.5718 18.9055 35.0087 18.9055H32.1685ZM32.8915 20.7645H34.7161C37.2292 20.7645 38.2103 21.7801 38.2103 24.8785V25.1711C38.2103 28.2694 37.2292 29.285 34.7161 29.285H32.8915V20.7645ZM46.7303 18.8022C46.1622 18.8022 45.6975 19.026 45.4049 19.8178L41.5319 29.8875C41.2909 30.5244 41.5836 30.9719 42.1344 31.1613C42.6852 31.3506 43.2704 31.2817 43.5114 30.6104L44.527 27.7875H48.8647L49.8631 30.5416C50.1213 31.2817 50.7581 31.3334 51.3262 31.1613C51.8942 30.9891 52.204 30.4555 51.9458 29.8014L48.0729 19.8178C47.7631 19.026 47.3155 18.8022 46.7303 18.8022ZM46.6958 21.5563C46.868 22.1588 47.0229 22.658 47.3155 23.467L48.2106 25.9629H45.1811L46.0934 23.467C46.3688 22.6752 46.5065 22.2449 46.6958 21.5563ZM61.2429 18.9227C60.6921 18.6817 60.1413 18.785 59.8142 19.3875L57.1118 24.2932L54.3577 19.3703C54.0306 18.7678 53.411 18.6817 52.9118 18.9399C52.3438 19.2326 52.1372 19.7662 52.4643 20.317L55.9585 26.3244V30.3006C55.9585 30.9547 56.4749 31.2473 57.0602 31.2473C57.6454 31.2473 58.1618 30.9547 58.1618 30.3006V26.3244L61.6733 20.2998C62.052 19.6457 61.7765 19.1637 61.2429 18.9227Z" fill="#1E1E1E"/>
</svg>
