<svg width="55" height="55" viewBox="0 0 55 55" fill="none" xmlns="http://www.w3.org/2000/svg">
<circle cx="27.5" cy="27.5" r="27.5" fill="#F2F2F2"/>
<path d="M35.8075 14.7214C36.1934 14.3219 36.655 14.0032 37.1654 13.784C37.6757 13.5647 38.2246 13.4493 38.7801 13.4445C39.3355 13.4397 39.8863 13.5455 40.4004 13.7558C40.9145 13.9662 41.3816 14.2768 41.7743 14.6695C42.1671 15.0623 42.4777 15.5294 42.688 16.0435C42.8984 16.5576 43.0042 17.1084 42.9994 17.6638C42.9946 18.2193 42.8792 18.7682 42.6599 19.2785C42.4407 19.7889 42.122 20.2505 41.7225 20.6363L40.0639 22.295L34.1489 16.38L35.8075 14.7214Z" fill="#808080"/>
<path d="M31.1917 19.3369L13.6665 36.8621V42.7771H19.5815L37.1088 25.2519L31.1896 19.3369H31.1917Z" fill="#808080"/>
</svg>
