<svg width="52" height="52" viewBox="0 0 52 52" fill="none" xmlns="http://www.w3.org/2000/svg">
    <circle cx="26" cy="26" r="26" fill="#F2F2F2" />
    <path
        d="M33.8543 13.9183C34.2191 13.5406 34.6555 13.2393 35.138 13.032C35.6206 12.8248 36.1395 12.7157 36.6647 12.7111C37.1898 12.7065 37.7106 12.8066 38.1966 13.0054C38.6827 13.2043 39.1243 13.498 39.4956 13.8693C39.867 14.2407 40.1606 14.6822 40.3595 15.1683C40.5583 15.6543 40.6584 16.1751 40.6538 16.7003C40.6493 17.2254 40.5402 17.7444 40.3329 18.2269C40.1256 18.7094 39.8243 19.1458 39.4466 19.5107L37.8784 21.0788L32.2861 15.4865L33.8543 13.9183Z"
        fill="#808080" />
    <path d="M29.4902 18.2812L12.9209 34.8506V40.4429H18.5132L35.0845 23.8736L29.4882 18.2812H29.4902Z"
        fill="#808080" />
</svg>