<svg width="22" height="22" viewBox="0 0 22 22" fill="none" xmlns="http://www.w3.org/2000/svg">
<circle cx="11" cy="11" r="11" fill="#808080"/>
<path d="M11.0004 4.45459C9.22281 4.45459 8.99972 4.46236 8.30156 4.49414C7.60477 4.52604 7.12915 4.63636 6.71298 4.79823C6.28249 4.96541 5.91732 5.18904 5.55351 5.553C5.18943 5.91682 4.9658 6.282 4.79808 6.71236C4.63581 7.12868 4.52536 7.60445 4.494 8.301C4.46277 8.99918 4.45459 9.22241 4.45459 11C4.45459 12.7777 4.4625 13.0001 4.49413 13.6983C4.52618 14.3951 4.63649 14.8707 4.79822 15.2869C4.96553 15.7174 5.18916 16.0826 5.5531 16.4464C5.91677 16.8105 6.28194 17.0347 6.71216 17.2019C7.1286 17.3637 7.60436 17.474 8.30102 17.506C8.99918 17.5377 9.22213 17.5455 10.9996 17.5455C12.7773 17.5455 12.9997 17.5377 13.6979 17.506C14.3947 17.474 14.8708 17.3637 15.2873 17.2019C15.7176 17.0347 16.0822 16.8105 16.4459 16.4464C16.81 16.0826 17.0336 15.7174 17.2013 15.287C17.3622 14.8707 17.4727 14.395 17.5054 13.6984C17.5368 13.0002 17.545 12.7777 17.545 11C17.545 9.22241 17.5368 8.99932 17.5054 8.30114C17.4727 7.60432 17.3622 7.12868 17.2013 6.7125C17.0336 6.282 16.81 5.91682 16.4459 5.553C16.0818 5.18891 15.7177 4.96527 15.2869 4.79823C14.8696 4.63636 14.3937 4.52604 13.6969 4.49414C12.9987 4.46236 12.7765 4.45459 10.9983 4.45459H11.0004ZM10.4132 5.63414C10.5875 5.63386 10.7819 5.63414 11.0004 5.63414C12.748 5.63414 12.9551 5.64041 13.6452 5.67177C14.2834 5.70095 14.6297 5.80759 14.8605 5.89718C15.1659 6.01582 15.3837 6.15763 15.6126 6.38673C15.8417 6.61582 15.9835 6.834 16.1024 7.13945C16.192 7.36991 16.2988 7.71627 16.3278 8.35445C16.3592 9.04445 16.366 9.25173 16.366 10.9985C16.366 12.7454 16.3592 12.9526 16.3278 13.6426C16.2986 14.2808 16.192 14.6272 16.1024 14.8576C15.9838 15.1631 15.8417 15.3806 15.6126 15.6095C15.3835 15.8386 15.166 15.9805 14.8605 16.0991C14.63 16.1891 14.2834 16.2955 13.6452 16.3246C12.9552 16.356 12.748 16.3628 11.0004 16.3628C9.25267 16.3628 9.04554 16.356 8.35556 16.3246C7.7174 16.2952 7.37105 16.1885 7.14019 16.099C6.83474 15.9803 6.61657 15.8385 6.38749 15.6094C6.1584 15.3803 6.01659 15.1627 5.89768 14.8571C5.80809 14.6266 5.70132 14.2803 5.67228 13.6421C5.64092 12.9521 5.63464 12.7448 5.63464 10.9969C5.63464 9.249 5.64092 9.04282 5.67228 8.35282C5.70146 7.71464 5.80809 7.36827 5.89768 7.13754C6.01632 6.83209 6.1584 6.61391 6.38749 6.38482C6.61657 6.15573 6.83474 6.01391 7.14019 5.895C7.37091 5.805 7.7174 5.69864 8.35556 5.66932C8.95936 5.64204 9.19336 5.63386 10.4132 5.6325V5.63414ZM14.4942 6.72095C14.0606 6.72095 13.7088 7.07236 13.7088 7.50613C13.7088 7.93977 14.0606 8.29159 14.4942 8.29159C14.9278 8.29159 15.2796 7.93977 15.2796 7.50613C15.2796 7.0725 14.9278 6.72068 14.4942 6.72068V6.72095ZM11.0004 7.63868C9.14413 7.63868 7.63913 9.14373 7.63913 11C7.63913 12.8564 9.14413 14.3607 11.0004 14.3607C12.8567 14.3607 14.3611 12.8564 14.3611 11C14.3611 9.14373 12.8565 7.63868 11.0003 7.63868H11.0004ZM11.0004 8.81823C12.2053 8.81823 13.1821 9.795 13.1821 11C13.1821 12.205 12.2053 13.1819 11.0004 13.1819C9.79538 13.1819 8.81864 12.205 8.81864 11C8.81864 9.795 9.79538 8.81823 11.0004 8.81823Z" fill="white"/>
</svg>
