<svg width="39" height="31" viewBox="0 0 39 31" fill="none" xmlns="http://www.w3.org/2000/svg">
<path d="M10.1284 15.2075C11.603 14.8176 12.8836 14.8176 13.9701 15.2075C15.0567 15.5195 15.9493 16.0654 16.6478 16.8453C17.4239 17.6252 18.006 18.561 18.394 19.6528C18.7821 20.6667 18.9761 21.6805 18.9761 22.6943C18.9761 24.722 18.1612 26.6327 16.5313 28.4264C14.9015 30.1421 12.7284 31 10.0119 31C6.75224 31 4.26866 29.8692 2.56119 27.6075C0.853731 25.3459 0 22.6553 0 19.5358C0 15.1686 1.20299 11.2692 3.60896 7.83774C6.09254 4.3283 9.93433 1.71572 15.1343 0L17.8119 3.86038C11.9134 6.12201 8.96418 9.67044 8.96418 14.5057C8.96418 14.8956 9.0806 15.1296 9.31343 15.2075C9.62388 15.2855 9.89552 15.2855 10.1284 15.2075ZM30.0358 15.0906C31.5104 14.7006 32.791 14.7006 33.8776 15.0906C34.9642 15.4025 35.8955 15.9874 36.6716 16.8453C37.4478 17.6252 38.0299 18.561 38.4179 19.6528C38.806 20.6667 39 21.6805 39 22.6943C39 24.722 38.1463 26.6327 36.4388 28.4264C34.809 30.1421 32.6358 31 29.9194 31C26.6597 31 24.1761 29.8692 22.4687 27.6075C20.7612 25.3459 19.9075 22.6553 19.9075 19.5358C19.9075 15.1686 21.1493 11.2692 23.6328 7.83774C26.1164 4.3283 29.9194 1.71572 35.0418 0L37.8358 3.86038C31.8597 6.12201 28.8716 9.67044 28.8716 14.5057C28.8716 14.8176 28.9881 15.0126 29.2209 15.0906C29.5313 15.1686 29.803 15.1686 30.0358 15.0906Z" fill="#5A5A5A"/>
</svg>
