<svg width="135" height="46" viewBox="0 0 135 46" fill="none" xmlns="http://www.w3.org/2000/svg">
<path fill-rule="evenodd" clip-rule="evenodd" d="M22.3991 44.9178C34.7698 44.9178 44.7982 34.8894 44.7982 22.5187C44.7982 10.1481 34.7698 0.119629 22.3991 0.119629C10.0284 0.119629 0 10.1481 0 22.5187C0 34.8894 10.0284 44.9178 22.3991 44.9178ZM22.433 32.1759C27.7476 32.1759 32.0559 27.8676 32.0559 22.553C32.0559 17.2385 27.7476 12.9302 22.433 12.9302C17.1185 12.9302 12.8102 17.2385 12.8102 22.553C12.8102 27.8676 17.1185 32.1759 22.433 32.1759Z" fill="#E6FA94"/>
<path d="M49.6427 44.2797C53.1615 44.2797 55.2468 43.0285 57.1235 41.0215L54.5691 38.441C53.1355 39.7443 51.8583 40.5784 49.773 40.5784C46.6452 40.5784 44.4817 37.9718 44.4817 34.8439V34.7918C44.4817 31.6639 46.6973 29.1095 49.773 29.1095C51.5976 29.1095 53.0312 29.8915 54.4388 31.1687L56.9932 28.2233C55.2989 26.5551 53.2397 25.4082 49.7991 25.4082C44.195 25.4082 40.2852 29.6569 40.2852 34.8439V34.8961C40.2852 40.1352 44.2732 44.2797 49.6427 44.2797Z" fill="black"/>
<path d="M58.1995 43.9669H62.2918L63.96 39.8746H71.6754L73.3436 43.9669H77.5402L69.7205 25.5907H66.0192L58.1995 43.9669ZM65.3936 36.3297L67.8177 30.4128L70.2418 36.3297H65.3936Z" fill="black"/>
<path d="M79.7828 43.9669H83.7448V32.3677L92.581 43.9669H95.9956V25.721H92.0336V36.9552L83.4841 25.721H79.7828V43.9669Z" fill="black"/>
<path d="M99.8022 43.9669H106.918C112.652 43.9669 116.614 39.9788 116.614 34.8439V34.7918C116.614 29.6569 112.652 25.721 106.918 25.721H99.8022V43.9669ZM103.816 40.3438V29.3441H106.918C110.202 29.3441 112.418 31.6118 112.418 34.8439V34.8961C112.418 38.1282 110.202 40.3438 106.918 40.3438H103.816Z" fill="black"/>
<path d="M123.047 43.9669H127.061V36.6946L134.073 25.721H129.512L125.08 33.0454L120.728 25.721H116.036L123.047 36.7728V43.9669Z" fill="black"/>
<path d="M36.4831 22.3989V4.15303H32.469V11.3732H25.0663V4.15303H21.0522V22.3989H25.0663V15.0745H32.469V22.3989H36.4831Z" fill="black"/>
<path d="M58.0592 22.3989L50.2396 4.02271H46.5382L38.7186 22.3989H42.8109L44.4791 18.3066H52.1945L53.8627 22.3989H58.0592ZM50.7609 14.7617H45.9127L48.3368 8.84483L50.7609 14.7617Z" fill="black"/>
<path d="M76.5147 22.3989V4.15303H72.5527V15.3873L64.0032 4.15303H60.3019V22.3989H64.2638V10.7997L73.1001 22.3989H76.5147Z" fill="black"/>
<path d="M97.1335 13.276V13.2238C97.1335 8.08893 93.1715 4.15303 87.4371 4.15303H80.3212V22.3989H87.4371C93.1715 22.3989 97.1335 18.4109 97.1335 13.276ZM92.937 13.3281C92.937 16.5602 90.7214 18.7758 87.4371 18.7758H84.3353V7.77614H87.4371C90.7214 7.77614 92.937 10.0438 92.937 13.276V13.3281Z" fill="black"/>
<path d="M114.592 4.15303H110.031L105.6 11.4775L101.247 4.15303H96.5548L103.566 15.2048V22.3989H107.581V15.1266L114.592 4.15303Z" fill="black"/>
</svg>
