<svg width="144" height="49" viewBox="0 0 144 49" fill="none" xmlns="http://www.w3.org/2000/svg">
<path fill-rule="evenodd" clip-rule="evenodd" d="M24 47.871C37.2548 47.871 48 37.1833 48 23.9992C48 10.8152 37.2548 0.127441 24 0.127441C10.7452 0.127441 0 10.8152 0 23.9992C0 37.1833 10.7452 47.871 24 47.871ZM24.036 34.2912C29.7304 34.2912 34.3466 29.6996 34.3466 24.0356C34.3466 18.3717 29.7304 13.7801 24.036 13.7801C18.3417 13.7801 13.7254 18.3717 13.7254 24.0356C13.7254 29.6996 18.3417 34.2912 24.036 34.2912Z" fill="#E6FA94"/>
<path d="M53.1909 47.1908C56.9612 47.1908 59.1955 45.8574 61.2064 43.7184L58.4694 40.9683C56.9333 42.3572 55.5648 43.2462 53.3305 43.2462C49.9791 43.2462 47.661 40.4682 47.661 37.1347V37.0792C47.661 33.7456 50.035 31.0233 53.3305 31.0233C55.2855 31.0233 56.8216 31.8567 58.3297 33.2178L61.0667 30.0788C59.2514 28.3009 57.045 27.0786 53.3584 27.0786C47.3538 27.0786 43.1646 31.6066 43.1646 37.1347V37.1903C43.1646 42.7739 47.4376 47.1908 53.1909 47.1908Z" fill="black"/>
<path d="M62.3593 46.8575H66.744L68.5315 42.4961H76.7983L78.5857 46.8575H83.0822L74.7037 27.2731H70.7378L62.3593 46.8575ZM70.0675 38.7181L72.6649 32.4122L75.2622 38.7181H70.0675Z" fill="black"/>
<path d="M85.4852 46.8575H89.7303V34.4957L99.198 46.8575H102.857V27.412H98.6115V39.3848L89.451 27.412H85.4852V46.8575Z" fill="black"/>
<path d="M106.935 46.8575H114.56C120.704 46.8575 124.949 42.6072 124.949 37.1347V37.0792C124.949 31.6066 120.704 27.412 114.56 27.412H106.935V46.8575ZM111.236 42.9962V31.2733H114.56C118.079 31.2733 120.453 33.6901 120.453 37.1347V37.1903C120.453 40.6349 118.079 42.9962 114.56 42.9962H111.236Z" fill="black"/>
<path d="M131.842 46.8575H136.143V39.107L143.656 27.412H138.768L134.02 35.2179L129.356 27.412H124.329L131.842 39.1904V46.8575Z" fill="black"/>
<path d="M39.0903 23.8718V4.42625H34.7893V12.1211H26.8576V4.42625H22.5566V23.8718H26.8576V16.0658H34.7893V23.8718H39.0903Z" fill="black"/>
<path d="M62.2085 23.8718L53.83 4.28735H49.8642L41.4856 23.8718H45.8704L47.6578 19.5104H55.9246L57.7121 23.8718H62.2085ZM54.3886 15.7324H49.1939L51.7912 9.42652L54.3886 15.7324Z" fill="black"/>
<path d="M81.983 23.8718V4.42625H77.7379V16.3991L68.5773 4.42625H64.6115V23.8718H68.8566V11.51L78.3244 23.8718H81.983Z" fill="black"/>
<path d="M104.076 14.149V14.0934C104.076 8.62092 99.8304 4.42625 93.6861 4.42625H86.0617V23.8718H93.6861C99.8304 23.8718 104.076 19.6215 104.076 14.149ZM99.579 14.2046C99.579 17.6492 97.2051 20.0104 93.6861 20.0104H90.3626V8.28757H93.6861C97.2051 8.28757 99.579 10.7044 99.579 14.149V14.2046Z" fill="black"/>
<path d="M122.782 4.42625H117.894L113.147 12.2322L108.483 4.42625H103.455L110.968 16.2047V23.8718H115.269V16.1213L122.782 4.42625Z" fill="black"/>
</svg>
