<svg width="28" height="28" viewBox="0 0 28 28" fill="none" xmlns="http://www.w3.org/2000/svg">
<path d="M2.33333 28C2.33333 28 0 28 0 25.6667C0 23.3333 2.33333 16.3333 14 16.3333C25.6667 16.3333 28 23.3333 28 25.6667C28 28 25.6667 28 25.6667 28H2.33333ZM14 14C15.8565 14 17.637 13.2625 18.9497 11.9497C20.2625 10.637 21 8.85651 21 7C21 5.14348 20.2625 3.36301 18.9497 2.05025C17.637 0.737498 15.8565 0 14 0C12.1435 0 10.363 0.737498 9.05025 2.05025C7.7375 3.36301 7 5.14348 7 7C7 8.85651 7.7375 10.637 9.05025 11.9497C10.363 13.2625 12.1435 14 14 14Z" fill="#1E1E1E"/>
</svg>
