<svg width="39" height="31" viewBox="0 0 39 31" fill="none" xmlns="http://www.w3.org/2000/svg">
<path d="M28.8716 15.7925C27.397 16.1824 26.1164 16.1824 25.0299 15.7925C23.9433 15.4805 23.0507 14.9346 22.3522 14.1547C21.5761 13.3748 20.994 12.439 20.606 11.3472C20.2179 10.3333 20.0239 9.3195 20.0239 8.30566C20.0239 6.27799 20.8388 4.3673 22.4687 2.57359C24.0985 0.857862 26.2716 0 28.9881 0C32.2478 0 34.7313 1.13082 36.4388 3.39245C38.1463 5.65409 39 8.34465 39 11.4642C39 15.8314 37.797 19.7308 35.391 23.1623C32.9075 26.6717 29.0657 29.2843 23.8657 31L21.1881 27.1396C27.0866 24.878 30.0358 21.3296 30.0358 16.4943C30.0358 16.1044 29.9194 15.8704 29.6866 15.7925C29.3761 15.7145 29.1045 15.7145 28.8716 15.7925ZM8.96418 15.9094C7.48955 16.2994 6.20895 16.2994 5.12239 15.9094C4.03582 15.5975 3.10448 15.0126 2.32836 14.1547C1.55224 13.3748 0.97015 12.439 0.582088 11.3472C0.194031 10.3333 0 9.3195 0 8.30566C0 6.27799 0.853733 4.3673 2.5612 2.57359C4.19104 0.857862 6.36418 0 9.0806 0C12.3403 0 14.8239 1.13082 16.5313 3.39245C18.2388 5.65409 19.0925 8.34465 19.0925 11.4642C19.0925 15.8314 17.8507 19.7308 15.3672 23.1623C12.8836 26.6717 9.0806 29.2843 3.95821 31L1.16418 27.1396C7.1403 24.878 10.1284 21.3296 10.1284 16.4943C10.1284 16.1824 10.0119 15.9874 9.7791 15.9094C9.46866 15.8314 9.19702 15.8314 8.96418 15.9094Z" fill="#5A5A5A"/>
</svg>
