<svg width="48" height="48" viewBox="0 0 48 48" fill="none" xmlns="http://www.w3.org/2000/svg">
<path d="M36.25 33.7917V35.25H10V33.7917L12.9167 30.875V22.125C12.9167 17.6042 15.8771 13.6229 20.2083 12.3396V11.9167C20.2083 11.1431 20.5156 10.4013 21.0626 9.85427C21.6096 9.30729 22.3515 9 23.125 9C23.8985 9 24.6404 9.30729 25.1874 9.85427C25.7344 10.4013 26.0417 11.1431 26.0417 11.9167V12.3396C30.3729 13.6229 33.3333 17.6042 33.3333 22.125V30.875L36.25 33.7917ZM26.0417 36.7083C26.0417 37.4819 25.7344 38.2237 25.1874 38.7707C24.6404 39.3177 23.8985 39.625 23.125 39.625C22.3515 39.625 21.6096 39.3177 21.0626 38.7707C20.5156 38.2237 20.2083 37.4819 20.2083 36.7083H26.0417Z" fill="black"/>
</svg>
