<svg width="85" height="82" viewBox="0 0 85 82" fill="none" xmlns="http://www.w3.org/2000/svg">
<g filter="url(#filter0_d)">
<path d="M77.0451 30.1962C76.8298 30.0899 76.6114 30.0019 76.3899 29.926C74.7155 29.352 73.4445 27.9672 72.8833 26.2849C72.2372 24.3414 72.5345 22.2399 73.5719 20.4756C74.4668 18.9511 74.6609 17.0228 73.8722 15.222C72.8318 12.8472 70.2595 11.4443 67.7023 11.8603C67.5871 11.8785 67.4748 11.8998 67.3626 11.9271C65.3636 12.3705 63.2706 12.0061 61.6204 10.7914L61.1381 10.4361C59.4879 9.22135 58.5203 7.32641 58.3504 5.28267C58.3413 5.17031 58.3292 5.05492 58.311 4.93952C57.947 2.35828 55.8297 0.314541 53.2422 0.0351589C51.2462 -0.177414 49.4323 0.627327 48.2493 1.99994C46.9206 3.54261 45.0126 4.46275 42.9803 4.46275H42.3038C40.2684 4.46275 38.3635 3.53958 37.0318 1.9969C35.8518 0.630363 34.047 -0.174378 32.0571 0.0321215C29.4605 0.302393 27.3341 2.35524 26.9701 4.94256C26.9519 5.06403 26.9398 5.1855 26.9307 5.30697C26.7699 7.34767 25.8022 9.23957 24.1582 10.4573L23.5363 10.9189C21.8922 12.1366 19.8053 12.5162 17.8063 12.0729C17.688 12.0455 17.5666 12.0243 17.4453 12.0061C14.8669 11.5991 12.2855 13.0386 11.2693 15.4437C10.4928 17.287 10.7354 19.2518 11.697 20.7792C12.783 22.5041 13.1106 24.5964 12.516 26.546L12.3189 27.1929C11.7243 29.1455 10.2804 30.6973 8.41794 31.5263C6.78295 32.2551 5.4968 33.7371 5.10852 35.6837C4.60195 38.2285 5.9063 40.8522 8.23897 41.9819C8.45434 42.0882 8.67578 42.1762 8.89418 42.2522C10.5686 42.8261 11.8396 44.2109 12.3977 45.8932C13.0438 47.8368 12.7466 49.9382 11.7092 51.7025C10.8143 53.227 10.6202 55.1553 11.4089 56.9561C12.4493 59.3309 15.0216 60.7339 17.5788 60.3178C17.694 60.2996 17.8063 60.2783 17.9185 60.251C19.9175 59.8076 22.0105 60.1721 23.6607 61.3868L24.143 61.7421C25.7931 62.9598 26.7608 64.8517 26.9307 66.8954C26.9398 67.0078 26.9519 67.1232 26.9701 67.2386C27.3341 69.8198 29.4514 71.8636 32.0389 72.143C34.0348 72.3555 35.8488 71.5508 37.0318 70.1782C38.3604 68.6355 40.2684 67.7154 42.3008 67.7154H42.9772C45.0126 67.7154 46.9176 68.6385 48.2493 70.1812C49.4292 71.5478 51.2371 72.3525 53.224 72.146C55.8206 71.8757 57.947 69.8229 58.308 67.2325C58.3262 67.111 58.3383 66.9896 58.3474 66.8681C58.5082 64.8274 59.4758 62.9355 61.1199 61.7178L61.7417 61.2562C63.3858 60.0384 65.4728 59.6588 67.4718 60.1022C67.5901 60.1295 67.7114 60.1508 67.8328 60.169C70.4111 60.5759 72.9925 59.1365 74.0087 56.7314C74.7853 54.8881 74.5426 52.9233 73.581 51.3958C72.4951 49.6709 72.1675 47.5786 72.762 45.629L72.9592 44.9822C73.5537 43.0296 74.9976 41.4778 76.8601 40.6487C78.4951 39.9199 79.7843 38.438 80.1695 36.4914C80.6822 33.9466 79.3778 31.3259 77.0451 30.1962Z" fill="white"/>
<path d="M76.7922 30.7186L76.7883 30.7167C76.5986 30.6231 76.4036 30.5442 76.2017 30.475C74.3392 29.8366 72.9453 28.3048 72.3328 26.4685L72.3326 26.468C71.6288 24.3509 71.9575 22.0764 73.0714 20.1818C73.8764 18.8104 74.0513 17.0776 73.3406 15.4549C72.4062 13.3221 70.0905 12.0598 67.7955 12.4332L67.7929 12.4336C67.689 12.45 67.5929 12.4684 67.4999 12.491L67.4883 12.4939L67.4883 12.4937C65.3418 12.9698 63.0741 12.5822 61.2763 11.2588L61.2762 11.2587L60.794 10.9035C58.9954 9.57951 57.9543 7.5242 57.772 5.33075L57.7719 5.32954C57.7635 5.22619 57.7529 5.12626 57.7377 5.02994L57.7362 5.02058L57.7363 5.02057C57.4095 2.70311 55.5038 0.863267 53.1802 0.612244C51.3823 0.420958 49.7532 1.14413 48.6891 2.37871C47.2561 4.0425 45.1905 5.04316 42.9803 5.04316H42.3038C40.0898 5.04316 38.0277 4.03884 36.5925 2.37616C35.5306 1.1465 33.9094 0.423489 32.1172 0.609413L76.7922 30.7186ZM76.7922 30.7186C78.887 31.7331 80.0608 34.0921 79.6005 36.3768L79.6002 36.3787C79.2533 38.1312 78.0953 39.4626 76.6241 40.1185L76.7922 30.7186ZM27.5441 5.02856L27.5441 5.02856C27.5287 5.13165 27.5179 5.23811 27.5095 5.35033L27.5093 5.35255C27.3365 7.54513 26.2947 9.59686 24.5041 10.9234L27.5441 5.02856ZM27.5441 5.02856L27.5448 5.02342M27.5441 5.02856L27.5448 5.02342M27.5448 5.02342C27.8717 2.69984 29.7861 0.852133 32.117 0.609432L27.5448 5.02342ZM17.4855 59.7449L17.4881 59.7445C17.5921 59.7281 17.6881 59.7097 17.7812 59.6871L17.7928 59.6842L17.7928 59.6844C19.9393 59.2083 22.207 59.596 24.0048 60.9193L24.0049 60.9195L24.4872 61.2748L24.4876 61.275C26.2854 62.6017 27.3267 64.6535 27.5091 66.8474L27.5092 66.8486C27.5175 66.9519 27.5282 67.0519 27.5434 67.1482L27.5449 67.1575C27.8716 69.4748 29.7769 71.3145 32.1003 71.5658L17.4855 59.7449ZM17.4855 59.7449C15.1906 60.1183 12.875 58.856 11.9405 56.7233L17.4855 59.7449ZM57.7331 67.1524L57.7339 67.1465C57.7494 67.0434 57.7602 66.937 57.7686 66.8247L57.7688 66.8225C57.9415 64.6298 58.9835 62.5779 60.7744 61.2514C60.7744 61.2514 60.7744 61.2514 60.7744 61.2514L61.3958 60.7901L61.3963 60.7898C63.1862 59.464 65.4478 59.0588 67.5975 59.5356L67.6025 59.5367C67.701 59.5595 67.8063 59.5781 67.919 59.595L67.9233 59.5957C70.2372 59.9609 72.5612 58.6658 73.474 56.5057C74.1734 54.8451 73.9551 53.0795 73.0898 51.705C71.9196 49.8462 71.5602 47.5801 72.2068 45.4597L57.7331 67.1524ZM57.7331 67.1524C57.4089 69.4785 55.4948 71.3261 53.164 71.5687C51.3747 71.7547 49.7504 71.0316 48.6886 69.8019M57.7331 67.1524L36.592 69.7994M36.592 69.7994C38.025 68.1356 40.0906 67.1349 42.3008 67.1349H42.9772C45.1913 67.1349 47.2534 68.1393 48.6886 69.8019M36.592 69.7994C35.5279 71.0339 33.8989 71.7571 32.1012 71.5659L36.592 69.7994ZM48.6886 69.8019L48.2493 70.1812L48.6886 69.8019C48.6886 69.8019 48.6886 69.8019 48.6886 69.8019ZM23.8823 11.3849L24.5036 10.9237L8.89418 42.2522L9.08475 41.7039C9.08435 41.7038 9.08396 41.7036 9.08356 41.7035C8.88161 41.6333 8.68386 41.5542 8.49584 41.4614L8.49195 41.4595C6.39751 40.4452 5.22279 38.0831 5.67772 35.7972C6.02752 34.0435 7.18336 32.7122 8.65397 32.0566C10.6595 31.1639 12.2272 29.4865 12.8741 27.3621C12.8741 27.3621 12.8741 27.362 12.8741 27.3619L13.0712 26.7153C13.7178 24.5949 13.3585 22.3289 12.1882 20.47C11.323 19.0956 11.1046 17.3301 11.804 15.6696C12.7167 13.5093 15.0407 12.2142 17.3548 12.5794L17.3591 12.58C17.4717 12.5969 17.5771 12.6156 17.6756 12.6384L17.6756 12.6384L17.6806 12.6395C19.8303 13.1163 22.0919 12.711 23.8818 11.3853L23.8823 11.3849Z" stroke="black" stroke-width="1.16082"/>
</g>
<path d="M42.7267 48.7545V22.0557M42.7267 22.0557L34.0205 30.3415M42.7267 22.0557L51.4328 30.3415" stroke="black" stroke-width="2.32164" stroke-linecap="round" stroke-linejoin="round"/>
<defs>
<filter id="filter0_d" x="0.356718" y="0" width="84.5669" height="81.4647" filterUnits="userSpaceOnUse" color-interpolation-filters="sRGB">
<feFlood flood-opacity="0" result="BackgroundImageFix"/>
<feColorMatrix in="SourceAlpha" type="matrix" values="0 0 0 0 0 0 0 0 0 0 0 0 0 0 0 0 0 0 127 0"/>
<feOffset dy="4.64328"/>
<feGaussianBlur stdDeviation="2.32164"/>
<feColorMatrix type="matrix" values="0 0 0 0 0 0 0 0 0 0 0 0 0 0 0 0 0 0 0.1 0"/>
<feBlend mode="normal" in2="BackgroundImageFix" result="effect1_dropShadow"/>
<feBlend mode="normal" in="SourceGraphic" in2="effect1_dropShadow" result="shape"/>
</filter>
</defs>
</svg>
