<svg width="1920" height="327" viewBox="0 0 1920 327" fill="none" xmlns="http://www.w3.org/2000/svg">
<g clip-path="url(#clip0)">
<rect width="1920" height="327" fill="white"/>
<g opacity="0.8" filter="url(#filter0_f)">
<path d="M358.345 37.6598C357.37 37.1576 356.381 36.7416 355.378 36.3829C347.793 33.6713 342.036 27.1291 339.494 19.1809C336.567 9.99889 337.913 0.0708313 342.613 -8.26473C346.666 -15.4669 347.546 -24.5772 343.973 -33.0849C339.26 -44.3042 327.608 -50.9325 316.025 -48.967C315.503 -48.8809 314.994 -48.7805 314.486 -48.6513C305.431 -46.5567 295.95 -48.2783 288.475 -54.0171L286.291 -55.6957C278.816 -61.4344 274.433 -70.3869 273.663 -80.0424C273.622 -80.5732 273.567 -81.1184 273.485 -81.6636C271.836 -93.8585 262.245 -103.514 250.524 -104.834C241.483 -105.838 233.267 -102.036 227.908 -95.5514C221.889 -88.2632 213.247 -83.9161 204.041 -83.9161H200.977C191.757 -83.9161 183.128 -88.2775 177.096 -95.5658C171.751 -102.022 163.575 -105.824 154.561 -104.848C142.8 -103.571 133.168 -93.8728 131.519 -81.6493C131.436 -81.0754 131.381 -80.5015 131.34 -79.9276C130.612 -70.2865 126.229 -61.3484 118.781 -55.5952L115.965 -53.4145C108.517 -47.6614 99.0639 -45.868 90.009 -47.9627C89.4731 -48.0918 88.9235 -48.1922 88.3738 -48.2783C76.6945 -50.2008 65.0014 -43.4004 60.3984 -32.0376C56.8808 -23.329 57.9801 -14.0466 62.3358 -6.83005C67.2548 1.31901 68.7388 11.204 66.0457 20.4148L65.1525 23.4707C62.4594 32.6957 55.919 40.027 47.4824 43.9437C40.0763 47.387 34.2504 54.3883 32.4916 63.5847C30.1969 75.6074 36.1053 88.0031 46.6717 93.3402C47.6473 93.8423 48.6503 94.2584 49.6396 94.6171C57.2243 97.3286 62.9816 103.871 65.5098 111.819C68.4365 121.001 67.0899 130.929 62.3907 139.265C58.3373 146.467 57.4579 155.577 61.0304 164.085C65.7434 175.304 77.3953 181.932 88.9784 179.967C89.5006 179.881 90.009 179.78 90.5173 179.651C99.5723 177.557 109.053 179.278 116.528 185.017L118.713 186.696C126.187 192.449 130.571 201.387 131.34 211.042C131.381 211.573 131.436 212.118 131.519 212.664C133.168 224.859 142.758 234.514 154.479 235.834C163.52 236.838 171.737 233.036 177.096 226.551C183.114 219.263 191.757 214.916 200.963 214.916H204.027C213.247 214.916 221.876 219.278 227.908 226.566C233.253 233.022 241.442 236.824 250.442 235.848C262.204 234.571 271.836 224.873 273.471 212.635C273.553 212.061 273.608 211.487 273.65 210.913C274.378 201.272 278.761 192.334 286.208 186.581L289.025 184.4C296.472 178.647 305.926 176.854 314.981 178.948C315.517 179.077 316.066 179.178 316.616 179.264C328.295 181.186 339.988 174.386 344.591 163.023C348.109 154.315 347.01 145.032 342.654 137.816C337.735 129.667 336.251 119.782 338.944 110.571L339.837 107.515C342.53 98.2899 349.071 90.9586 357.507 87.0419C364.913 83.5986 370.753 76.5973 372.498 67.401C374.82 55.3782 368.912 42.9968 358.345 37.6598Z" fill="url(#paint0_linear)"/>
</g>
<g opacity="0.8" filter="url(#filter1_f)">
<path d="M977.345 281.66C976.37 281.158 975.381 280.742 974.378 280.383C966.793 277.671 961.036 271.129 958.494 263.181C955.567 253.999 956.913 244.071 961.613 235.735C965.666 228.533 966.546 219.423 962.973 210.915C958.26 199.696 946.608 193.068 935.025 195.033C934.503 195.119 933.994 195.22 933.486 195.349C924.431 197.443 914.95 195.722 907.475 189.983L905.291 188.304C897.816 182.566 893.433 173.613 892.663 163.958C892.622 163.427 892.567 162.882 892.485 162.336C890.836 150.142 881.245 140.486 869.524 139.166C860.483 138.162 852.267 141.964 846.908 148.449C840.889 155.737 832.247 160.084 823.041 160.084H819.977C810.757 160.084 802.128 155.722 796.096 148.434C790.751 141.978 782.575 138.176 773.561 139.152C761.8 140.429 752.168 150.127 750.519 162.351C750.436 162.925 750.381 163.498 750.34 164.072C749.612 173.714 745.229 182.652 737.781 188.405L734.965 190.585C727.517 196.339 718.064 198.132 709.009 196.037C708.473 195.908 707.923 195.808 707.374 195.722C695.694 193.799 684.001 200.6 679.398 211.962C675.881 220.671 676.98 229.953 681.336 237.17C686.255 245.319 687.739 255.204 685.046 264.415L684.153 267.471C681.459 276.696 674.919 284.027 666.482 287.944C659.076 291.387 653.25 298.388 651.492 307.585C649.197 319.607 655.105 332.003 665.672 337.34C666.647 337.842 667.65 338.258 668.64 338.617C676.224 341.329 681.982 347.871 684.51 355.819C687.437 365.001 686.09 374.929 681.391 383.265C677.337 390.467 676.458 399.577 680.03 408.085C684.743 419.304 696.395 425.932 707.978 423.967C708.501 423.881 709.009 423.78 709.517 423.651C718.572 421.557 728.053 423.278 735.528 429.017L737.713 430.696C745.187 436.449 749.571 445.387 750.34 455.042C750.381 455.573 750.436 456.118 750.519 456.664C752.168 468.859 761.758 478.514 773.479 479.834C782.52 480.838 790.737 477.036 796.096 470.551C802.114 463.263 810.757 458.916 819.963 458.916H823.027C832.247 458.916 840.876 463.278 846.908 470.566C852.253 477.022 860.442 480.824 869.442 479.848C881.204 478.571 890.836 468.873 892.471 456.635C892.553 456.061 892.608 455.487 892.65 454.913C893.378 445.272 897.761 436.334 905.208 430.581L908.025 428.4C915.472 422.647 924.926 420.854 933.981 422.948C934.517 423.077 935.066 423.178 935.616 423.264C947.295 425.186 958.988 418.386 963.591 407.023C967.109 398.315 966.01 389.032 961.654 381.816C956.735 373.667 955.251 363.782 957.944 354.571L958.837 351.515C961.53 342.29 968.071 334.959 976.507 331.042C983.913 327.599 989.753 320.597 991.498 311.401C993.82 299.378 987.912 286.997 977.345 281.66Z" fill="url(#paint1_linear)"/>
</g>
<g opacity="0.8" filter="url(#filter2_f)">
<path d="M1807.35 -47.3402C1806.37 -47.8424 1805.38 -48.2584 1804.38 -48.6171C1796.79 -51.3287 1791.04 -57.8709 1788.49 -65.8191C1785.57 -75.0011 1786.91 -84.9292 1791.61 -93.2647C1795.67 -100.467 1796.55 -109.577 1792.97 -118.085C1788.26 -129.304 1776.61 -135.932 1765.02 -133.967C1764.5 -133.881 1763.99 -133.78 1763.49 -133.651C1754.43 -131.557 1744.95 -133.278 1737.48 -139.017L1735.29 -140.696C1727.82 -146.434 1723.43 -155.387 1722.66 -165.042C1722.62 -165.573 1722.57 -166.118 1722.48 -166.664C1720.84 -178.858 1711.25 -188.514 1699.52 -189.834C1690.48 -190.838 1682.27 -187.036 1676.91 -180.551C1670.89 -173.263 1662.25 -168.916 1653.04 -168.916H1649.98C1640.76 -168.916 1632.13 -173.278 1626.1 -180.566C1620.75 -187.022 1612.58 -190.824 1603.56 -189.848C1591.8 -188.571 1582.17 -178.873 1580.52 -166.649C1580.44 -166.075 1580.38 -165.502 1580.34 -164.928C1579.61 -155.286 1575.23 -146.348 1567.78 -140.595L1564.96 -138.415C1557.52 -132.661 1548.06 -130.868 1539.01 -132.963C1538.47 -133.092 1537.92 -133.192 1537.37 -133.278C1525.69 -135.201 1514 -128.4 1509.4 -117.038C1505.88 -108.329 1506.98 -99.0466 1511.34 -91.83C1516.25 -83.681 1517.74 -73.796 1515.05 -64.5852L1514.15 -61.5293C1511.46 -52.3043 1504.92 -44.973 1496.48 -41.0563C1489.08 -37.613 1483.25 -30.6117 1481.49 -21.4153C1479.2 -9.39259 1485.11 3.00313 1495.67 8.34019C1496.65 8.84233 1497.65 9.25839 1498.64 9.61707C1506.22 12.3286 1511.98 18.8708 1514.51 26.819C1517.44 36.0011 1516.09 45.9292 1511.39 54.2647C1507.34 61.4669 1506.46 70.5771 1510.03 79.0849C1514.74 90.3042 1526.4 96.9325 1537.98 94.9669C1538.5 94.8809 1539.01 94.7804 1539.52 94.6513C1548.57 92.5567 1558.05 94.2783 1565.53 100.017L1567.71 101.696C1575.19 107.449 1579.57 116.387 1580.34 126.042C1580.38 126.573 1580.44 127.118 1580.52 127.664C1582.17 139.859 1591.76 149.514 1603.48 150.834C1612.52 151.838 1620.74 148.036 1626.1 141.551C1632.11 134.263 1640.76 129.916 1649.96 129.916H1653.03C1662.25 129.916 1670.88 134.278 1676.91 141.566C1682.25 148.022 1690.44 151.824 1699.44 150.848C1711.2 149.571 1720.84 139.873 1722.47 127.635C1722.55 127.061 1722.61 126.487 1722.65 125.913C1723.38 116.272 1727.76 107.334 1735.21 101.581L1738.03 99.4001C1745.47 93.647 1754.93 91.8537 1763.98 93.9483C1764.52 94.0774 1765.07 94.1779 1765.62 94.2639C1777.3 96.1864 1788.99 89.386 1793.59 78.0232C1797.11 69.3146 1796.01 60.0322 1791.65 52.8157C1786.73 44.6666 1785.25 34.7816 1787.94 25.5708L1788.84 22.515C1791.53 13.2899 1798.07 5.9586 1806.51 2.0419C1813.91 -1.40137 1819.75 -8.40266 1821.5 -17.599C1823.82 -29.6218 1817.91 -42.0032 1807.35 -47.3402Z" fill="url(#paint2_linear)"/>
</g>
</g>
<defs>
<filter id="filter0_f" x="22" y="-115" width="361" height="361" filterUnits="userSpaceOnUse" color-interpolation-filters="sRGB">
<feFlood flood-opacity="0" result="BackgroundImageFix"/>
<feBlend mode="normal" in="SourceGraphic" in2="BackgroundImageFix" result="shape"/>
<feGaussianBlur stdDeviation="5" result="effect1_foregroundBlur"/>
</filter>
<filter id="filter1_f" x="641" y="129" width="361" height="361" filterUnits="userSpaceOnUse" color-interpolation-filters="sRGB">
<feFlood flood-opacity="0" result="BackgroundImageFix"/>
<feBlend mode="normal" in="SourceGraphic" in2="BackgroundImageFix" result="shape"/>
<feGaussianBlur stdDeviation="5" result="effect1_foregroundBlur"/>
</filter>
<filter id="filter2_f" x="1471" y="-200" width="361" height="361" filterUnits="userSpaceOnUse" color-interpolation-filters="sRGB">
<feFlood flood-opacity="0" result="BackgroundImageFix"/>
<feBlend mode="normal" in="SourceGraphic" in2="BackgroundImageFix" result="shape"/>
<feGaussianBlur stdDeviation="5" result="effect1_foregroundBlur"/>
</filter>
<linearGradient id="paint0_linear" x1="140.708" y1="-105" x2="245.983" y2="236" gradientUnits="userSpaceOnUse">
<stop stop-color="#E6FA94"/>
<stop offset="1" stop-color="#E6FA94" stop-opacity="0"/>
</linearGradient>
<linearGradient id="paint1_linear" x1="759.708" y1="139" x2="864.983" y2="480" gradientUnits="userSpaceOnUse">
<stop stop-color="#E6FA94"/>
<stop offset="1" stop-color="#E6FA94" stop-opacity="0"/>
</linearGradient>
<linearGradient id="paint2_linear" x1="1589.71" y1="-190" x2="1694.98" y2="151" gradientUnits="userSpaceOnUse">
<stop stop-color="#E6FA94"/>
<stop offset="1" stop-color="#E6FA94" stop-opacity="0"/>
</linearGradient>
<clipPath id="clip0">
<rect width="1920" height="327" fill="white"/>
</clipPath>
</defs>
</svg>
