<svg width="52" height="52" viewBox="0 0 52 52" fill="none" xmlns="http://www.w3.org/2000/svg">
<path d="M49.7653 21.7546C49.6165 21.678 49.4657 21.6145 49.3127 21.5599C48.1561 21.1464 47.2782 20.1487 46.8905 18.9367C46.4442 17.5365 46.6496 16.0225 47.3662 14.7514C47.9843 13.6531 48.1184 12.2639 47.5736 10.9665C46.8549 9.25566 45.0781 8.2449 43.3117 8.54463C43.2321 8.55775 43.1546 8.57307 43.0771 8.59276C41.6962 8.91218 40.2505 8.64964 39.1106 7.77452L38.7775 7.51855C37.6376 6.64343 36.9692 5.27824 36.8519 3.80585C36.8456 3.7249 36.8372 3.64177 36.8246 3.55863C36.5732 1.699 35.1107 0.226608 33.3234 0.0253299C31.9447 -0.127816 30.6917 0.451951 29.8745 1.44084C28.9567 2.55224 27.6388 3.21514 26.2349 3.21514H25.7677C24.3617 3.21514 23.0459 2.55005 22.126 1.43865C21.3109 0.454139 20.0642 -0.125629 18.6897 0.0231416C16.8961 0.217856 15.4273 1.69681 15.1759 3.56082C15.1633 3.64833 15.1549 3.73584 15.1486 3.82335C15.0376 5.29355 14.3692 6.65655 13.2335 7.53386L12.804 7.86641C11.6683 8.74372 10.2268 9.01719 8.84594 8.69777C8.76422 8.67808 8.68041 8.66277 8.5966 8.64964C6.81558 8.35647 5.03247 9.39349 4.33054 11.1262C3.79414 12.4542 3.96177 13.8697 4.62598 14.9702C5.3761 16.2129 5.6024 17.7203 5.19172 19.1248L5.05552 19.5908C4.64484 20.9976 3.64747 22.1156 2.36095 22.7128C1.23158 23.2379 0.343163 24.3055 0.0749628 25.7079C-0.274954 27.5413 0.62603 29.4316 2.23732 30.2454C2.38609 30.322 2.53905 30.3854 2.68991 30.4401C3.84652 30.8536 4.72446 31.8513 5.11 33.0633C5.5563 34.4635 5.35096 35.9775 4.63436 37.2486C4.01625 38.3469 3.88215 39.7361 4.42693 41.0335C5.14562 42.7443 6.92244 43.7551 8.68879 43.4554C8.76841 43.4422 8.84594 43.4269 8.92347 43.4072C10.3043 43.0878 11.75 43.3504 12.8899 44.2255L13.223 44.4814C14.3629 45.3588 15.0313 46.7218 15.1486 48.1941C15.1549 48.2751 15.1633 48.3582 15.1759 48.4414C15.4273 50.301 16.8898 51.7734 18.6771 51.9747C20.0559 52.1278 21.3089 51.548 22.126 50.5592C23.0438 49.4478 24.3617 48.7848 25.7656 48.7848H26.2328C27.6388 48.7848 28.9547 49.4499 29.8745 50.5613C30.6896 51.5459 31.9384 52.1256 33.3108 51.9769C35.1044 51.7821 36.5732 50.3032 36.8226 48.437C36.8351 48.3495 36.8435 48.262 36.8498 48.1745C36.9608 46.7043 37.6292 45.3413 38.7649 44.4639L39.1944 44.1314C40.3301 43.2541 41.7717 42.9806 43.1525 43.3C43.2342 43.3197 43.318 43.335 43.4018 43.3482C45.1828 43.6413 46.966 42.6043 47.6679 40.8716C48.2043 39.5436 48.0367 38.1281 47.3725 37.0276C46.6223 35.7849 46.396 34.2775 46.8067 32.873L46.9429 32.407C47.3536 31.0002 48.351 29.8822 49.6375 29.285C50.7669 28.7599 51.6574 27.6923 51.9235 26.2899C52.2776 24.4565 51.3766 22.5684 49.7653 21.7546Z" fill="#E6FA94"/>
</svg>
