<svg width="72" height="72" viewBox="0 0 72 72" fill="none" xmlns="http://www.w3.org/2000/svg">
<path fill-rule="evenodd" clip-rule="evenodd" d="M46.9647 7.55906C52.5001 2.02371 60.8995 1.44852 65.7253 6.27434C70.5511 11.1002 69.9759 19.4995 64.4406 25.0349C61.0352 28.4403 52.8822 33.6319 45.9885 35.9993C52.8819 38.367 61.0339 43.5581 64.4391 46.9633C69.9745 52.4986 70.5497 60.898 65.7238 65.7238C60.898 70.5497 52.4986 69.9745 46.9633 64.4391C43.5581 61.0339 38.3669 52.8817 35.9992 45.9882C33.6318 52.8819 28.4403 61.0346 25.0349 64.44C19.4995 69.9754 11.1002 70.5506 6.27434 65.7247C1.44852 60.8989 2.02371 52.4995 7.55906 46.9642C10.9645 43.5588 19.1174 38.3672 26.0112 35.9997C19.1177 33.6321 10.9657 28.441 7.56052 25.0358C2.02517 19.5004 1.44998 11.101 6.27579 6.27523C11.1016 1.44941 19.501 2.02461 25.0364 7.55996C28.4416 10.9652 33.6328 19.1174 36.0004 26.0109C38.3679 19.1172 43.5594 10.9644 46.9647 7.55906Z" fill="#FFD0F8"/>
</svg>
