<svg width="72" height="72" viewBox="0 0 72 72" fill="none" xmlns="http://www.w3.org/2000/svg">
<path fill-rule="evenodd" clip-rule="evenodd" d="M61.7375 36C66.739 32.6763 70.0364 26.9856 70.0364 20.5235C70.0364 10.2732 61.7399 1.96362 51.5055 1.96362C45.019 1.96362 39.3108 5.30163 36.0001 10.3561C32.6893 5.30165 26.9812 1.96367 20.4946 1.96367C10.2603 1.96367 1.96373 10.2732 1.96373 20.5235C1.96373 26.9856 5.26108 32.6763 10.2626 36C5.26101 39.3236 1.96362 45.0144 1.96362 51.4765C1.96362 61.7268 10.2602 70.0363 20.4945 70.0363C26.9811 70.0363 32.6893 66.6983 36 61.6438C39.3108 66.6983 45.0189 70.0363 51.5055 70.0363C61.7399 70.0363 70.0364 61.7268 70.0364 51.4765C70.0364 45.0144 66.739 39.3236 61.7375 36ZM36 41.3092C37.3803 39.2019 39.1772 37.393 41.2735 36C39.1772 34.6069 37.3803 32.7981 36.0001 30.6909C34.6198 32.7981 32.8229 34.607 30.7266 36C32.8229 37.3931 34.6198 39.202 36 41.3092Z" fill="#FED9BF"/>
</svg>
