<svg width="72" height="72" viewBox="0 0 72 72" fill="none" xmlns="http://www.w3.org/2000/svg">
<path d="M4 34.5L4 62.9626C4 65.7447 6.25532 68 9.0374 68L22.7184 68C25.5005 68 27.7558 65.7447 27.7558 62.9626L27.7558 35.4019C27.7558 30.8937 31.4104 27.2391 35.9186 27.2391C40.4268 27.2391 44.0814 30.8937 44.0814 35.4019L44.0814 62.9626C44.0814 65.7447 46.3367 68 49.1188 68L61.9626 68C64.7447 68 67 65.7447 67 62.9626L67 34.5C67 17.103 52.897 3.00001 35.5 3C18.103 3 4 17.103 4 34.5Z" fill="#C7FEB4"/>
</svg>
